<svg width="64" height="64" viewBox="0 0 64 64" fill="none" xmlns="http://www.w3.org/2000/svg">
<path d="M31.855 54C28.4978 54.0057 25.2162 53.0037 22.4349 51.1237C19.726 49.295 17.6056 46.72 16.3307 43.7106C15.238 41.1287 14.8077 38.3147 15.079 35.5243C15.3502 32.7338 16.3145 30.0554 17.884 27.7324C19.7127 25.0236 22.2876 22.9032 25.2969 21.6282C27.8787 20.5355 30.6927 20.1052 33.4831 20.3765C36.2735 20.6477 38.9519 21.612 41.2749 23.1816C43.9837 25.0102 46.1041 27.5851 47.3791 30.5944C48.4719 33.1762 48.9022 35.9901 48.631 38.7805C48.3598 41.571 47.3957 44.2494 45.8262 46.5724C43.9976 49.2812 41.4227 51.4016 38.4135 52.6766C36.3386 53.5545 34.1079 54.0046 31.855 54ZM31.855 28.7277C29.7733 28.7305 27.7669 29.5063 26.2249 30.9047C24.683 32.3031 23.7153 34.2244 23.5097 36.2959C23.3042 38.3673 23.8753 40.4413 25.1123 42.1156C26.3493 43.7898 28.1641 44.9449 30.2046 45.3568C32.2451 45.7687 34.3658 45.408 36.1555 44.3448C37.9451 43.2815 39.276 41.5915 39.8901 39.6025C40.5042 37.6135 40.3576 35.4673 39.4789 33.5802C38.6001 31.6932 37.0518 30.1997 35.1342 29.3896C34.0968 28.9508 32.9814 28.7258 31.855 28.7282V28.7277Z" fill="#3700FF"/>
<path d="M15.2026 21.4268L15.1064 15.9147L15.1249 15.9322C15.1234 15.8919 15.1223 15.8518 15.1216 15.8113C15.1021 14.7007 15.4125 13.6093 16.0134 12.6751C16.6143 11.7408 17.4787 11.0058 18.4974 10.5628C19.516 10.1199 20.6431 9.98899 21.7362 10.1866C22.8292 10.3843 23.8391 10.9016 24.6382 11.6733C25.4372 12.4449 25.9895 13.4361 26.2252 14.5216C26.4608 15.6071 26.3693 16.7381 25.9622 17.7716C25.5551 18.8051 24.8507 19.6946 23.938 20.3277C23.0253 20.9609 21.9454 21.3091 20.8347 21.3285L15.2026 21.4268Z" fill="#F2C215"/>
</svg>
