<svg width="160" height="165" viewBox="0 0 160 165" fill="none" xmlns="http://www.w3.org/2000/svg">
<path d="M61.6465 117.906C26.8876 117.906 1.203 130.061 1.203 147.092C1.203 158.841 21.7861 164.211 40.9306 164.211C44.6931 164.211 48.8208 161.586 50.1598 158.094L65.5639 117.895H61.6465V117.906Z" fill="#FFD000"/>
<path d="M1.17491 124.753C14.0176 109.59 37.7423 106.407 54.6492 106.407H84.8834C127.916 106.407 149.372 86.0943 157.28 62.4441C168.019 30.3284 146.178 1.80444 105.513 1.80444H94.4768C67.9324 1.80444 47.3027 8.41325 36.8611 33.0139L0.370869 124.277C-0.32303 126.023 -0.0366589 126.178 1.17491 124.741V124.753Z" fill="#3700FF"/>
<path d="M132.149 21.8627C132.247 21.6182 132.283 21.3534 132.255 21.0915C132.227 20.8297 132.135 20.5787 131.987 20.3606C131.84 20.1426 131.641 19.9641 131.408 19.8407C131.175 19.7174 130.916 19.653 130.652 19.6532C129.324 19.658 97.922 20.0728 63.5437 49.695C63.3373 49.8599 43.6327 65.8266 27.7063 94.8818C27.5998 95.076 27.5344 95.29 27.5144 95.5105C27.4943 95.731 27.5199 95.9532 27.5896 96.1634C27.6592 96.3736 27.7715 96.5671 27.9193 96.732C28.0672 96.8968 28.2474 97.0294 28.4488 97.1214C30.2573 97.9008 32.1316 98.5176 34.0495 98.9644L35.0974 99.2224C43.9956 101.214 61.6371 102.321 79.8769 87.4538C80.1346 87.2347 80.3168 86.94 80.3976 86.6116C80.4785 86.2832 80.4539 85.9376 80.3273 85.6239C80.2067 85.309 79.9903 85.0398 79.7086 84.8544C79.4268 84.669 79.094 84.5767 78.7571 84.5905C74.3992 84.7032 70.0429 84.31 65.7757 83.4189C80.1923 80.7141 114.949 69.2319 132.149 21.8627Z" fill="white"/>
</svg>
