<svg width="100" height="100" viewBox="0 0 100 100" fill="none" xmlns="http://www.w3.org/2000/svg">
<path d="M0 16.6667C0 7.46192 7.46192 0 16.6667 0H83.3333C92.5381 0 100 7.46192 100 16.6667V83.3333C100 92.5381 92.5381 100 83.3333 100H16.6667C7.46192 100 0 92.5381 0 83.3333V16.6667Z" fill="#130056"/>
<path d="M42.8307 63.9736C29.253 63.9736 19.2199 68.7218 19.2199 75.3744C19.2199 79.9639 27.2602 82.0614 34.7385 82.0614C36.2082 82.0614 37.8206 81.0362 38.3437 79.6723L44.3609 63.9693H42.8307V63.9736Z" fill="#FFD000"/>
<path d="M19.2089 66.6481C24.2256 60.7252 33.4931 59.4819 40.0973 59.4819H51.9076C68.7172 59.4819 77.0984 51.5473 80.1876 42.3089C84.3825 29.7637 75.8507 18.6215 59.9661 18.6215H55.655C45.2861 18.6215 37.2276 21.2031 33.1489 30.8127L18.8949 66.4625C18.6238 67.1446 18.7357 67.205 19.2089 66.6438V66.6481Z" fill="#3700FF"/>
<path d="M70.3706 26.4568C70.4088 26.3612 70.4231 26.2578 70.4121 26.1555C70.4011 26.0532 70.3651 25.9552 70.3075 25.87C70.2498 25.7848 70.1721 25.7151 70.0812 25.6669C69.9903 25.6187 69.8889 25.5936 69.7861 25.5937C69.2672 25.5955 57.0008 25.7576 43.5717 37.3288C43.4911 37.3932 35.794 43.6302 29.5727 54.9799C29.5311 55.0557 29.5056 55.1393 29.4978 55.2254C29.4899 55.3116 29.4999 55.3984 29.5271 55.4805C29.5543 55.5626 29.5982 55.6382 29.656 55.7026C29.7137 55.767 29.7841 55.8187 29.8628 55.8547C30.5692 56.1592 31.3014 56.4001 32.0505 56.5746L32.4599 56.6754C35.9357 57.4532 42.827 57.886 49.9519 52.0783C50.0525 51.9927 50.1237 51.8776 50.1553 51.7493C50.1869 51.621 50.1772 51.486 50.1278 51.3635C50.0807 51.2405 49.9962 51.1353 49.8861 51.0629C49.7761 50.9905 49.6461 50.9544 49.5144 50.9598C47.8121 51.0038 46.1105 50.8503 44.4436 50.5021C50.0751 49.4456 63.6519 44.9603 70.3706 26.4568Z" fill="white"/>
</svg>
